PathFileType  4	(X/Y/Z) C:\Users\antoi\Documents\MyRepositories\mobilecap\ResultsAnalysis
DataRate	CameraRate	NumFrames	NumMarkers	Units	OrigDataRate	OrigDataStartFrame	OrigNumFrames
100.0	100.0	5	51	mm	100.0	128	170
Frame#	Time	r_knee			r_shank_antsup			r_ankle			r_calc			r_5meta			r_toe			L_knee			L_shank_antsup			L_ankle			L_calc			L_5meta			L_toe			r_sh2			r_sh3			r_sh4			L_sh2			L_sh3			r_thigh1			r_thigh2			r_thigh3			r_thigh4			r_thigh5			L_thigh1			L_thigh2			L_thigh3			L_thigh4			r.ASIS			r.PSIS			L.ASIS			L.PSIS			C7			R_Shoulder			L_Shoulder			R_Sternum			L_Sternum			R_humerus			R_elbow_med			R_elbow_lat			R_forearm			R_wrist_radius			R_wrist_ulna			L_humerus			L_elbow_med			L_elbow_lat			L_forearm			L_wrist_radius			L_wrist_ulna			R_HJC			L_HJC			R_HJC_reg			L_HJC_reg			
		X1	Y1	Z1	X2	Y2	Z2	X3	Y3	Z3	X4	Y4	Z4	X5	Y5	Z5	X6	Y6	Z6	X7	Y7	Z7	X8	Y8	Z8	X9	Y9	Z9	X10	Y10	Z10	X11	Y11	Z11	X12	Y12	Z12	X13	Y13	Z13	X14	Y14	Z14	X15	Y15	Z15	X16	Y16	Z16	X17	Y17	Z17	X18	Y18	Z18	X19	Y19	Z19	X20	Y20	Z20	X21	Y21	Z21	X22	Y22	Z22	X23	Y23	Z23	X24	Y24	Z24	X25	Y25	Z25	X26	Y26	Z26	X27	Y27	Z27	X28	Y28	Z28	X29	Y29	Z29	X30	Y30	Z30	X31	Y31	Z31	X32	Y32	Z32	X33	Y33	Z33	X34	Y34	Z34	X35	Y35	Z35	X36	Y36	Z36	X37	Y37	Z37	X38	Y38	Z38	X39	Y39	Z39	X40	Y40	Z40	X41	Y41	Z41	X42	Y42	Z42	X43	Y43	Z43	X44	Y44	Z44	X45	Y45	Z45	X46	Y46	Z46	X47	Y47	Z47	X48	Y48	Z48	X49	Y49	Z49	X50	Y50	Z50	X51	Y51	Z51	

128	1.27000000	1204.12518	480.12109	-58.96872	1277.64348	388.90206	-78.39683	1289.21541	105.72472	-93.96102	1254.40273	51.30666	-139.24806	1417.34254	96.54654	-75.30953	1439.36340	132.37608	-118.97988	964.55835	463.44623	-358.45793	971.01688	359.60349	-297.23511	831.19756	95.00158	-322.51576	770.95591	58.94583	-281.23155	942.05415	40.06746	-337.15400	976.63875	53.21098	-280.06670	1297.06463	278.81271	-91.61718	1225.22606	371.46029	-25.63220	1227.72261	260.22368	-46.68192	947.66167	379.04421	-379.50532	914.99015	263.01669	-382.47908	1139.01787	784.20549	-59.32594	1196.58978	689.68703	-60.38268	1165.17113	644.70124	-17.41650	1050.63259	733.74604	-15.35932	1109.55611	632.66524	-13.47485	1087.73521	739.60635	-370.41927	1069.33511	604.36537	-360.69519	987.32587	756.32060	-416.81656	965.79234	615.86596	-398.36948	1125.81523	909.34010	-90.78774	948.77958	970.55204	-152.64143	1130.05099	914.24050	-333.43985	946.12069	979.59877	-269.54393	1052.60135	1417.69767	-226.44327	1098.38831	1375.68822	-73.75125	1117.20707	1379.39968	-380.69120	1165.74327	1342.29685	-204.61016	1168.24073	1338.52286	-248.39809	1081.93860	1253.13076	-0.74361	955.09107	1083.39642	-37.87723	979.70797	1088.99952	32.26734	1016.35519	968.05167	59.45811	1044.47393	869.34334	65.29510	1010.39552	863.69314	79.61387	1130.25726	1234.75665	-449.78647	1064.54157	1040.22374	-409.46191	1075.24363	1054.84807	-480.44218	1134.57305	977.91912	-508.32617	1196.36156	863.05585	-509.45040	1169.82145	849.94820	-522.58146	1029.57722	847.49224	-116.57239	1034.10796	849.92233	-305.88019	1051.23970	842.40671	-128.05519	1047.60629	854.76441	-287.74301	
129	1.28000000	1210.99115	477.10822	-57.32918	1287.82330	389.12604	-76.57940	1310.87203	106.22737	-94.15868	1278.33602	50.88966	-139.40161	1439.84347	101.48261	-75.59182	1460.17421	138.78526	-118.88963	969.91026	462.78856	-358.96246	975.21890	358.47560	-297.67385	831.79987	95.62199	-322.81370	771.20757	60.00822	-281.41223	942.11324	39.90134	-337.31200	976.58288	52.75584	-280.35866	1311.26222	279.76706	-90.32261	1235.35582	369.13417	-24.41446	1242.28582	258.30366	-46.15957	951.89693	378.26274	-379.89218	917.70906	262.74717	-382.93461	1149.17774	781.39390	-59.30701	1205.20100	685.91958	-60.10817	1173.15250	641.66710	-16.85513	1059.98269	732.44482	-15.11279	1117.31223	630.42497	-12.68332	1096.10676	737.86487	-371.14279	1076.42862	602.88616	-361.40473	995.84062	755.55870	-417.37321	972.95626	615.32158	-398.86752	1136.18434	908.18917	-91.26528	958.63867	968.56825	-152.78500	1139.50764	913.08609	-334.12226	955.53948	977.71709	-269.69434	1060.81103	1416.44840	-223.09426	1105.55116	1373.15180	-70.57483	1126.57827	1379.72735	-377.31026	1173.91566	1341.07576	-201.23683	1176.72653	1337.73743	-245.05265	1088.29531	1250.29761	1.33282	962.29096	1080.55194	-38.14356	985.57359	1086.01412	32.50033	1021.25732	964.83806	60.05661	1048.84241	866.10540	65.98252	1014.24816	860.52730	79.70172	1141.08315	1235.65255	-447.19268	1075.33067	1040.69359	-409.34151	1087.76632	1055.73087	-479.91863	1147.01875	978.95842	-507.37423	1208.07818	863.74157	-508.22611	1181.80337	850.88851	-522.10509	1040.06189	845.92562	-116.90120	1043.99979	848.35319	-306.22206	1061.77576	840.71868	-128.38911	1057.53878	853.22313	-288.17616	
130	1.29000000	1218.01214	474.14226	-55.81107	1297.33006	388.82652	-74.50566	1329.95088	106.83299	-94.24547	1299.65982	50.69373	-139.84221	1459.61527	105.45015	-75.36956	1478.67665	144.12346	-118.11761	975.61263	462.05502	-359.39609	979.62926	357.30267	-298.07501	832.48429	96.36384	-323.14906	771.54868	61.20762	-281.62980	942.20715	39.73397	-337.47759	976.66602	52.33868	-280.66218	1324.17294	280.25096	-88.85900	1244.57204	366.56419	-23.25570	1255.36213	256.28546	-45.86526	956.41419	377.47484	-380.24786	920.62175	262.52157	-383.39226	1159.67220	778.72167	-59.36692	1214.12146	682.33104	-60.03675	1181.68637	638.79663	-16.44919	1069.79496	731.13774	-14.67494	1125.63780	628.30499	-11.91793	1104.66109	736.04319	-371.86798	1083.81111	601.35345	-362.07467	1004.54799	754.65736	-417.94777	980.39486	614.68425	-399.30983	1146.63928	906.87473	-91.76526	968.62127	966.50011	-152.89397	1149.17936	911.84334	-334.84506	965.16408	975.81466	-269.81969	1069.02771	1415.10364	-219.63175	1112.78944	1370.50168	-67.28852	1135.90157	1379.98117	-373.81307	1182.14626	1339.81115	-197.73998	1185.25753	1336.91544	-241.58673	1094.71760	1247.33760	3.55382	969.68205	1077.55191	-38.38468	991.59545	1082.86525	32.77294	1026.28566	961.44938	60.66934	1053.33729	862.71854	66.65567	1018.24578	857.18537	79.80240	1151.90432	1236.46774	-444.45154	1086.09424	1041.09830	-409.07679	1100.25676	1056.57138	-479.22840	1159.42338	979.89977	-506.25483	1219.68575	864.26959	-506.86289	1193.66523	851.71365	-521.46555	1050.64512	844.22962	-117.28080	1054.03255	846.74255	-306.61123	1072.38259	838.87735	-128.83897	1067.65407	851.61561	-288.73565	
131	1.30000000	1225.29899	471.31464	-54.50838	1306.25613	387.95474	-72.34018	1346.39332	107.29408	-94.17875	1318.24200	50.43242	-140.51614	1476.59647	108.17568	-74.59674	1494.87947	148.09335	-116.66058	981.62248	461.24605	-359.73185	984.23220	356.09564	-298.41454	833.24312	97.24096	-323.48291	771.97525	62.55947	-281.84447	942.33652	39.60211	-337.63038	976.88258	51.96853	-280.94932	1335.86064	280.13886	-87.31983	1253.04850	363.79095	-22.22436	1267.02144	254.11173	-45.79414	961.18217	376.68738	-380.54184	923.70610	262.33145	-383.81122	1170.50031	776.32114	-59.49489	1223.39862	679.06122	-60.12388	1190.82090	636.18763	-16.20044	1080.05976	729.88845	-14.10992	1134.58098	626.37992	-11.22260	1113.41497	734.12345	-372.55320	1091.47048	599.74189	-362.64649	1013.48597	753.62081	-418.53548	988.06552	613.97045	-399.65906	1157.17051	905.45811	-92.27259	978.70868	964.37918	-153.00645	1159.07877	910.48325	-335.59794	975.00908	973.88783	-269.95206	1077.28949	1413.68690	-216.05365	1120.12072	1367.74872	-63.89639	1145.22528	1380.17416	-370.20014	1190.45999	1338.51268	-194.12206	1193.85577	1336.06093	-237.99990	1101.24651	1244.25699	5.91327	977.26685	1074.41919	-38.57026	997.80505	1079.57309	33.09122	1031.47203	957.91124	61.29200	1057.93276	859.15607	67.31723	1022.42610	853.68728	79.92278	1162.71564	1237.20906	-441.57330	1096.85961	1041.45299	-408.64251	1112.67800	1057.38558	-478.35837	1171.77827	980.77018	-504.96053	1231.18537	864.65839	-505.35497	1205.40481	852.44336	-520.66042	1061.31591	842.45320	-117.68770	1064.22003	845.07092	-307.02527	1083.04324	836.91547	-129.39215	1077.98045	849.92784	-289.41603	
132	1.31000000	1232.96491	468.71355	-53.50835	1314.73232	386.51262	-70.27130	1360.24284	107.39065	-93.93488	1334.01671	49.84431	-141.30411	1490.81414	109.47929	-73.28869	1508.81766	150.47271	-114.60486	987.87979	460.37261	-359.95827	989.00684	354.86481	-298.67613	834.07407	98.25228	-323.79080	772.47462	64.07793	-282.03470	942.50896	39.53403	-337.75683	977.20297	51.63201	-281.19838	1346.41977	279.35309	-85.81054	1260.98987	360.89880	-21.38586	1277.37818	251.76790	-45.89773	966.15964	375.90542	-380.75580	926.93188	262.16667	-384.16333	1181.62843	774.28949	-59.65935	1233.05315	676.21099	-60.30238	1200.52810	633.90673	-16.09519	1090.72148	728.76025	-13.52868	1144.11662	624.70369	-10.65122	1122.38695	732.09837	-373.16134	1099.38055	598.03441	-363.07113	1022.68523	752.46579	-419.14046	995.91979	613.20123	-399.89955	1167.78814	904.01419	-92.75427	988.90194	962.23552	-153.17137	1169.21978	908.98156	-336.35261	985.09494	971.92628	-270.12707	1085.63453	1412.21561	-212.35768	1127.55462	1364.90657	-60.40248	1154.60598	1380.31846	-366.46768	1198.88680	1337.18767	-190.38644	1202.54266	1335.17114	-234.29365	1107.92437	1241.06618	8.38824	985.02708	1071.18132	-38.65528	1004.23031	1076.15979	33.46082	1036.84527	954.25166	61.92184	1062.61103	855.39837	67.97469	1026.80915	850.06152	80.06102	1173.51711	1237.88462	-438.56800	1107.64312	1041.78023	-408.01669	1125.01653	1058.18183	-477.29330	1184.07219	981.59805	-503.48338	1242.59046	864.93233	-503.69419	1217.02531	853.10313	-519.68600	1072.08013	840.65398	-118.08637	1074.59501	843.31467	-307.42978	1093.76752	834.87245	-130.00620	1088.55386	848.14594	-290.18192	
